HIERARCHY
ROOT SpineBase
{
  OFFSET 0.000000 0.000000 0.000000
  CHANNELS 6 Xposition Yposition Zposition Zrotation Xrotation Yrotation
  JOINT SpineMid
  {
    OFFSET 0.000000 26.935114 0.000000
    CHANNELS 3 Zrotation Xrotation Yrotation
    JOINT SpineShoulder
    {
      OFFSET 0.133026 20.040616 -0.570963
      CHANNELS 3 Zrotation Xrotation Yrotation
      JOINT Neck
      {
        OFFSET 0.019872 6.638233 -0.527500
        CHANNELS 3 Zrotation Xrotation Yrotation
        JOINT Head
        {
          OFFSET 2.363767 14.520125 2.797271
          CHANNELS 3 Zrotation Xrotation Yrotation
          End Site
          {
            OFFSET 0 0 0
          }
        }
      }
      JOINT ShoulderLeft
      {
        OFFSET -9.757144 -3.409716 -8.151527
        CHANNELS 3 Zrotation Xrotation Yrotation
        JOINT ElbowLeft
        {
          OFFSET -2.859343 -21.314742 -6.385685
          CHANNELS 3 Zrotation Xrotation Yrotation
          JOINT WristLeft
          {
            OFFSET 9.024313 -18.505702 -4.133544
            CHANNELS 3 Zrotation Xrotation Yrotation
            JOINT HandLeft
            {
              OFFSET 3.564645 -4.376726 3.082751
              CHANNELS 3 Zrotation Xrotation Yrotation
              JOINT HandTipLeft
              {
                OFFSET 6.791932 -6.332723 -0.323276
                CHANNELS 3 Zrotation Xrotation Yrotation
                End Site
                {
                  OFFSET 0 0 0
                }
              }
              JOINT ThumbLeft
              {
                OFFSET 2.562425 -2.540499 -7.288912
                CHANNELS 3 Zrotation Xrotation Yrotation
                End Site
                {
                  OFFSET 0 0 0
                }
              }
            }
          }
        }
      }
      JOINT ShoulderRight
      {
        OFFSET 12.340593 -5.671783 5.238930
        CHANNELS 3 Zrotation Xrotation Yrotation
        JOINT ElbowRight
        {
          OFFSET 1.815487 -25.751876 -0.247569
          CHANNELS 3 Zrotation Xrotation Yrotation
          JOINT WristRight
          {
            OFFSET 1.162409 -18.446070 -11.437838
            CHANNELS 3 Zrotation Xrotation Yrotation
            JOINT HandRight
            {
              OFFSET -1.812834 -3.455421 -3.244898
              CHANNELS 3 Zrotation Xrotation Yrotation
              JOINT HandTipRight
              {
                OFFSET -2.262382 -3.156865 -2.440320
                CHANNELS 3 Zrotation Xrotation Yrotation
                End Site
                {
                  OFFSET 0 0 0
                }
              }
              JOINT ThumbRight
              {
                OFFSET 1.407369 -2.226118 -1.303910
                CHANNELS 3 Zrotation Xrotation Yrotation
                End Site
                {
                  OFFSET 0 0 0
                }
              }
            }
          }
        }
      }
    }
  }
  JOINT HipLeft
  {
    OFFSET -4.263057 0.511690 -6.368556
    CHANNELS 3 Zrotation Xrotation Yrotation
    JOINT KneeLeft
    {
      OFFSET -8.731257 -31.235315 3.407800
      CHANNELS 3 Zrotation Xrotation Yrotation
      JOINT AnkleLeft
      {
        OFFSET -5.465768 -33.189806 12.599162
        CHANNELS 3 Zrotation Xrotation Yrotation
        JOINT FootLeft
        {
          OFFSET 3.563617 -4.466374 -5.568501
          CHANNELS 3 Zrotation Xrotation Yrotation
          End Site
          {
            OFFSET 0 0 0
          }
        }
      }
    }
  }
  JOINT HipRight
  {
    OFFSET 3.920020 0.638920 0.220195
    CHANNELS 3 Zrotation Xrotation Yrotation
    JOINT KneeRight
    {
      OFFSET -2.367487 -24.513220 -15.189812
      CHANNELS 3 Zrotation Xrotation Yrotation
      JOINT AnkleRight
      {
        OFFSET -9.798167 -34.912563 21.290198
        CHANNELS 3 Zrotation Xrotation Yrotation
        JOINT FootRight
        {
          OFFSET 3.833530 -3.297596 -9.687270
          CHANNELS 3 Zrotation Xrotation Yrotation
          End Site
          {
            OFFSET 0 0 0
          }
        }
      }
    }
  }
}
MOTION
Frames: 13
Frame Time: 0.033333
23.885015 70.031958 369.052640 -0.000000 0.000000 -38.839902 -0.000000 0.000000 38.839902 -0.000000 0.000000 0.000000 -0.000000 0.000000 0.000000 0.000000 0.000000 0.000000 -0.000000 0.000000 0.000000 -0.000000 0.000000 0.000000 -0.000000 0.000000 0.000000 -0.000000 0.000000 0.000000 0.000000 0.000000 0.000000 0.000000 0.000000 0.000000 -0.000000 0.000000 0.000000 -0.000000 0.000000 0.000000 -0.000000 0.000000 0.000000 -0.000000 0.000000 0.000000 0.000000 0.000000 0.000000 0.000000 0.000000 0.000000 -0.000000 0.000000 38.839902 -0.000000 0.000000 0.000000 -0.000000 0.000000 0.000000 0.000000 0.000000 0.000000 -0.000000 0.000000 38.839902 -0.000000 0.000000 0.000000 -0.000000 0.000000 0.000000 0.000000 0.000000 0.000000
23.948075 70.012921 369.074182 0.034028 -0.019006 -38.627971 -0.038448 -0.006394 38.627975 -0.000000 0.000000 0.000000 -0.000000 0.000000 0.000000 0.000000 0.000000 0.000000 -0.000000 0.000000 0.000000 -0.605714 -0.820727 -0.270405 -2.159790 2.430346 -0.297089 2.387693 -3.455952 -1.326363 0.000000 0.000000 0.000000 0.000000 0.000000 0.000000 -0.000000 0.000000 0.000000 -0.964712 -0.881545 0.538075 5.520441 -0.029655 -4.526072 -5.994172 -4.769391 9.117528 0.000000 0.000000 0.000000 0.000000 0.000000 0.000000 -0.038448 -0.006394 38.627975 -0.000000 0.000000 0.000000 -4.889830 -14.711734 -7.856845 0.000000 0.000000 0.000000 -1.348644 0.174338 39.098820 1.302820 -1.553849 -0.042778 -0.400307 0.587028 -0.407686 0.000000 0.000000 0.000000
23.989284 70.008872 369.075973 0.042858 -0.031391 -38.513229 -0.053082 -0.002125 38.513240 -0.000000 0.000000 0.000000 -0.000000 0.000000 0.000000 0.000000 0.000000 0.000000 0.088106 -0.844665 0.087769 -0.995502 -0.557538 -0.569421 -3.710737 4.711135 0.202187 3.593644 -6.800812 -3.168806 0.000000 0.000000 0.000000 0.000000 0.000000 0.000000 -0.000000 0.000000 0.000000 -1.614995 -1.356796 0.904270 8.579316 -0.136797 -7.114454 -8.614438 -9.421870 15.522940 0.000000 0.000000 0.000000 0.000000 0.000000 0.000000 -0.053082 -0.002125 38.513240 -1.070940 0.324801 -0.456790 -9.320130 -26.097143 -15.115885 0.000000 0.000000 0.000000 -2.319743 0.434841 39.274797 2.154345 -2.776261 -0.007237 -0.675572 1.003189 -0.690149 0.000000 0.000000 0.000000
24.008643 70.019811 369.058012 0.026448 -0.037147 -38.501542 -0.043824 0.012606 38.501555 -0.000000 0.000000 0.000000 -0.000000 0.000000 0.000000 0.000000 0.000000 0.000000 -0.000389 -1.114933 0.150122 -0.927598 -0.657893 -0.810173 -4.795682 6.892116 1.377349 3.664295 -10.059170 -5.513418 0.000000 0.000000 0.000000 0.000000 0.000000 0.000000 -0.000000 0.000000 0.000000 -1.944765 -1.407906 1.102930 10.121695 -0.305579 -8.486684 -9.255156 -12.978046 19.601020 0.000000 0.000000 0.000000 0.000000 0.000000 0.000000 -0.920451 0.201824 38.247438 -0.797246 -0.294348 -0.337427 -13.171584 -32.122132 -20.357937 0.000000 0.000000 0.000000 -2.914661 0.781334 39.374035 2.563612 -3.660035 0.086642 -0.828123 1.246282 -0.849682 0.000000 0.000000 0.000000
24.006151 70.045738 369.020299 -0.015271 -0.036262 -38.595195 -0.010685 0.037868 38.595194 -0.000000 0.000000 0.000000 -0.000000 0.000000 0.000000 0.000000 0.000000 0.000000 -0.178445 -1.283473 0.224351 -0.503520 -0.667890 -1.030991 -5.506050 9.044503 3.178650 2.580040 -13.212084 -8.409734 0.000000 0.000000 0.000000 0.000000 0.000000 0.000000 -0.000000 0.000000 0.000000 -1.951062 -1.028552 1.135077 10.508148 -0.536027 -8.934505 -8.687121 -15.082331 21.421361 0.000000 0.000000 0.000000 0.000000 0.000000 0.000000 -0.946083 0.229010 38.325958 -0.878481 -0.317485 -0.373258 -14.205856 -33.617623 -21.893512 0.000000 0.000000 0.000000 -3.134854 1.214541 39.397207 2.535133 -4.203168 0.225280 -0.663475 1.090498 -1.737695 0.000000 0.000000 0.000000
23.981808 70.086652 368.962835 -0.082395 -0.028717 -38.792634 0.046229 0.074003 38.792584 -0.000000 0.000000 0.000000 -0.000000 0.000000 0.000000 0.000000 0.000000 0.000000 -0.447356 -1.349734 0.310761 0.271704 -0.600861 -1.236425 -5.899108 11.252094 5.606399 0.257356 -16.185301 -11.965072 0.000000 0.000000 0.000000 0.000000 0.000000 0.000000 -0.000000 0.000000 0.000000 -1.633612 -0.223756 0.997810 9.816556 -0.789949 -8.554434 -7.255336 -15.749933 20.990933 0.000000 0.000000 0.000000 0.000000 0.000000 0.000000 -0.827607 0.234666 38.543765 -0.860490 -0.303456 -0.366096 -12.069268 -30.990080 -19.429859 0.000000 0.000000 0.000000 -2.980980 1.736366 39.338992 2.069143 -4.407715 0.401496 -0.527181 0.935256 -1.850764 0.000000 0.000000 0.000000
23.984057 70.131030 368.907430 -0.126196 -0.037614 -39.271894 0.073885 0.109001 39.271782 -0.000000 0.000000 0.000000 -0.000000 0.000000 0.000000 0.000000 0.000000 0.000000 -0.849335 -1.440121 0.438195 1.210020 -0.243923 -1.362479 -6.405494 13.179924 7.848456 -2.137500 -18.217876 -14.777986 0.000000 0.000000 0.000000 0.000000 0.000000 0.000000 -0.000000 0.000000 0.000000 -0.909227 0.730379 0.613494 6.542373 -2.276249 -5.164593 -2.891954 -14.181258 16.224356 0.000000 0.000000 0.000000 0.000000 0.000000 0.000000 -0.811916 0.211216 39.027863 0.623799 -0.637162 0.249863 -1.884988 -8.283074 -4.911766 0.000000 0.000000 0.000000 -4.043084 5.654681 38.634638 0.065601 -8.417260 1.462308 1.399680 2.266158 -4.474641 0.000000 0.000000 0.000000
24.105187 70.169326 368.930784 0.046691 -0.185303 -40.181436 -0.155232 0.111447 40.181662 -0.000000 0.000000 0.000000 -0.000000 0.000000 0.000000 0.000000 0.000000 0.000000 -1.424022 -1.432141 0.602221 2.405871 -0.282230 -1.689727 -6.826430 17.479407 12.783855 -12.019876 -20.218253 -22.130475 0.000000 0.000000 0.000000 0.000000 0.000000 0.000000 -0.000000 0.000000 0.000000 -0.188534 3.622088 0.344474 2.594430 -0.352106 -4.171858 1.187798 -16.104351 12.658283 0.000000 0.000000 0.000000 0.000000 0.000000 0.000000 -1.012526 0.036058 39.967744 0.705482 -0.492891 0.218056 1.022219 2.940072 1.006218 0.000000 0.000000 0.000000 -3.381959 5.500563 39.146303 -0.895836 -6.214684 1.144906 1.354821 0.353332 -3.492874 0.000000 0.000000 0.000000
24.029267 70.284570 368.781037 -0.111940 -0.124653 -40.211932 0.005006 0.167462 40.211803 -0.000000 0.000000 0.000000 -0.000000 0.000000 0.000000 0.000000 0.000000 0.000000 -1.312056 -1.476418 0.575593 3.914964 0.360144 -1.745299 -5.513949 20.030048 17.708621 -18.711120 -21.697605 -30.373888 0.000000 0.000000 0.000000 0.000000 0.000000 0.000000 -0.000000 0.000000 0.000000 1.504159 3.729091 -0.731252 -3.026662 6.863187 -3.186334 5.179947 -18.542775 9.284634 0.000000 0.000000 0.000000 0.000000 0.000000 0.000000 0.005006 0.167462 40.211803 -0.000000 0.000000 0.000000 1.851163 7.205975 3.052564 0.000000 0.000000 0.000000 -0.720571 2.163451 39.585205 -0.712810 -2.000568 0.628913 -0.000000 0.000000 0.000000 0.000000 0.000000 0.000000
23.675505 70.423820 368.502356 -0.624568 0.088224 -39.766518 0.536516 0.331695 39.765446 -0.000000 0.000000 0.000000 -0.000000 0.000000 0.000000 0.000000 0.000000 0.000000 -1.828823 -0.739703 0.635231 6.128374 -0.014151 -1.957123 -2.231480 22.435453 22.968648 -25.182384 -18.762039 -34.753457 0.000000 0.000000 0.000000 0.000000 0.000000 0.000000 -0.000000 0.000000 0.000000 2.930377 6.125335 -1.534414 -7.644773 5.429761 -0.426396 5.976426 -13.688675 3.246907 0.000000 0.000000 0.000000 0.000000 0.000000 0.000000 0.536516 0.331695 39.765446 -0.000000 0.000000 0.000000 0.526953 2.314087 1.145878 0.000000 0.000000 0.000000 5.177423 -3.155339 39.590695 -1.484232 8.245073 -0.433421 -4.721229 -8.477110 9.845176 0.000000 0.000000 0.000000
23.078656 70.565636 368.130626 -1.444657 0.467583 -38.976010 1.417190 0.545210 38.975162 -0.000000 0.000000 0.000000 -0.000000 0.000000 0.000000 0.000000 0.000000 0.000000 -2.814818 0.274987 0.810062 11.560386 -0.522533 -2.662755 -5.622855 26.618342 29.535826 -31.948279 -26.132274 -50.982089 0.000000 0.000000 0.000000 0.000000 0.000000 0.000000 1.008007 0.960848 0.049562 2.183913 7.880081 -1.601255 -9.107675 -3.634111 3.095065 5.187543 -6.831935 -1.127255 0.000000 0.000000 0.000000 0.000000 0.000000 0.000000 3.534116 0.691026 39.483986 -1.726483 1.233625 -0.513075 0.509776 3.711683 2.212875 0.000000 0.000000 0.000000 13.278552 -10.392142 40.193277 -2.734862 21.320318 -1.569847 -7.543757 -16.961738 17.999644 0.000000 0.000000 0.000000
22.399122 70.670995 367.759409 -2.331774 0.861311 -37.749109 1.225275 0.333783 37.726490 0.379326 0.154505 -0.025732 -0.192497 -1.562376 0.405152 0.000000 0.000000 0.000000 -3.125109 1.471319 0.991023 16.956270 -0.514373 -2.508636 -5.784003 26.339055 32.404218 -34.307620 -28.291172 -56.005349 0.000000 0.000000 0.000000 0.000000 0.000000 0.000000 2.995477 0.532663 0.120266 1.530090 12.985078 -1.762724 -10.967373 -13.056455 5.171279 3.458325 -0.473912 -3.816576 0.000000 0.000000 0.000000 0.000000 0.000000 0.000000 5.935593 1.247636 38.534215 -4.026099 2.493082 -1.222935 -0.143678 -2.306315 0.487609 0.000000 0.000000 0.000000 20.492407 -17.963400 41.821635 -2.200811 33.924974 -3.369870 -7.639938 -21.542043 18.003530 0.000000 0.000000 0.000000
21.786413 70.703406 367.501957 -3.085554 1.116830 -36.181250 1.373657 0.396380 36.152622 0.575230 0.140057 -0.036729 -0.542608 -2.508042 0.668057 0.000000 0.000000 0.000000 -3.554562 3.342574 1.055765 20.994626 -0.912193 -1.830692 -5.614732 27.222801 35.841565 -42.482640 -34.868883 -70.377295 0.000000 0.000000 0.000000 0.000000 0.000000 0.000000 5.056091 0.209576 0.152242 1.748723 19.114882 -2.866930 -12.860613 -19.229948 4.558366 -2.914189 10.966265 -4.857286 0.000000 0.000000 0.000000 0.000000 0.000000 0.000000 7.767211 1.823398 37.106680 -5.940428 3.411523 -1.749749 -3.478354 -15.588668 -5.776742 0.000000 0.000000 0.000000 25.617370 -24.640650 43.834053 0.631946 44.307727 -6.524371 -10.347571 -28.856686 26.381533 0.000000 0.000000 0.000000
